# xmcd
#
# Track frame offsets:
# 182
# 12032
# 22527
# 37212
# 59025
# 71925
# 87420
# 100457
# 119507
# 133832
# 151932
# 165807
# 186787
# 203977
# 215202
# 227952
# 240407
# 251882
# 266170
# 287132
#
# Disc length: 3998 seconds
#
#
# Revision: 4
# Processed by: cddbd v1.5.2PL0 Copyright (c) Steve Scherf et al.
# Submitted via: FreeRIP 2.40 
#
DISCID=2e0f9c14
DTITLE=Wim Sonneveld - De 20 Mooiste Liedjes
DYEAR=1987
DGENRE=Nederlandstalig
TTITLE0=Aan De Amsterdamse Grachten
TTITLE1=Een Zwoele Nacht In Krimpen Aan De Ijssel
TTITLE2=Het Dorp
TTITLE3=Margootje
TTITLE4=Luchtkastelen
TTITLE5=Verliefd Op Juffrouw Van Dam
TTITLE6=Wat Moet Ik Doen Zonder Jou
TTITLE7=Had Je Niet Die Mooie Blauwe Ogen
TTITLE8=Een Cent
TTITLE9=Burgemeester Beekmanlaan
TTITLE10=Marjolijne
TTITLE11=Scheveningse Tram
TTITLE12=Huis- Tuin- En Keukenliedje
TTITLE13=Carolientje
TTITLE14=Huwelijksreis
TTITLE15=Zo Heerlijk Rustig
TTITLE16=Annemarie
TTITLE17=Ik Heb Zo Vaak Aan Amsterdam Gedacht
TTITLE18=Het Hondje Van Dirkie
TTITLE19=Weet Je Nog Wel Oudje
EXTD=ID3G:   0
EXTT0=
EXTT1=
EXTT2=
EXTT3=
EXTT4=
EXTT5=
EXTT6=
EXTT7=
EXTT8=
EXTT9=
EXTT10=
EXTT11=
EXTT12=
EXTT13=
EXTT14=
EXTT15=
EXTT16=
EXTT17=
EXTT18=
EXTT19=
PLAYORDER=
